Coordinates
version=1
nRows=16
nColumns=40
inDegrees=yes

Units are S.I. units (second, meters, Newtons, ...)
Angles are in degrees.

endheader
time	pelvis_tilt	pelvis_list	pelvis_rotation	pelvis_tx	pelvis_ty	pelvis_tz	hip_flexion_r	hip_adduction_r	hip_rotation_r	knee_angle_r	knee_angle_r_beta	ankle_angle_r	subtalar_angle_r	mtp_angle_r	hip_flexion_l	hip_adduction_l	hip_rotation_l	knee_angle_l	knee_angle_l_beta	ankle_angle_l	subtalar_angle_l	mtp_angle_l	lumbar_extension	lumbar_bending	lumbar_rotation	arm_flex_r	arm_add_r	arm_rot_r	elbow_flex_r	pro_sup_r	wrist_flex_r	wrist_dev_r	arm_flex_l	arm_add_l	arm_rot_l	elbow_flex_l	pro_sup_l	wrist_flex_l	wrist_dev_l
      1.07000000	      0.52720379	     -0.59168554	     -0.58584956	     -0.20152000	      0.88926706	      1.40560242	     27.90736997	     -0.66272332	    -13.16671808	    -26.89741802	     -0.46944850	     -1.53514981	     -4.53352883	      1.74040320	    -11.25615606	     -1.90433880	     10.07035471	    -12.79550597	     -0.22332371	     12.11364603	     -6.17405572	     -6.16669218	     -8.36887319	      5.18470489	     -4.95167246	     -1.43994828	    -11.22090159	     11.69280813	     10.46330686	     89.95437384	      0.00000000	      0.00000000	     24.38277952	     12.72183200	    -18.24987025	     36.03839731	     89.95437384	      0.00000000	      0.00000000
      1.08000000	      0.65752621	     -0.77188150	     -0.03221259	     -0.18831959	      0.88766639	      1.40529206	     28.04329482	     -0.94465903	    -15.06918771	    -24.27820663	     -0.42373464	     -2.82282373	     -2.68689297	      1.41871354	    -12.29083655	     -1.51657995	     10.03836479	    -12.86437480	     -0.22452570	     12.07113421	     -6.70943396	     -6.37890211	     -8.47318743	      5.51238396	     -5.35162435	     -2.00935776	    -11.14976134	     11.36934391	     10.37056796	     89.95437384	      0.00000000	      0.00000000	     25.32350684	     12.82170105	    -18.16606496	     37.16350157	     89.95437384	      0.00000000	      0.00000000
      1.09000000	      0.41803221	     -0.79049205	      0.31540579	     -0.17541355	      0.88546652	      1.40543850	     28.66573150	     -1.16588021	    -16.16843391	    -21.98468769	     -0.38370519	     -3.70899166	     -1.30300004	      1.17346785	    -12.80031335	     -1.32517748	      9.90525004	    -13.13645392	     -0.22927437	     12.05757836	     -6.90466082	     -6.48864270	     -8.21161477	      5.60929013	     -5.55468137	     -2.53750329	    -11.02118587	     11.21457029	     10.18399678	     89.95437384	      0.00000000	      0.00000000	     26.11246498	     12.99412708	    -18.16298099	     38.45710517	     89.95437384	      0.00000000	      0.00000000
      1.10000000	      0.08788857	     -0.71027943	      0.72522013	     -0.16239230	      0.88312995	      1.40558421	     29.36893262	     -1.48861755	    -17.13032088	    -20.10620081	     -0.35091940	     -3.77065822	     -0.24267298	      0.94929075	    -13.14435269	     -1.21153807	      9.65711099	    -13.52623235	     -0.23607729	     11.87667747	     -7.07815017	     -6.53904968	     -7.83418373	      5.59177669	     -5.85158305	     -3.13935426	    -10.90670351	     11.08753558	     10.24268425	     89.95437384	      0.00000000	      0.00000000	     26.73890494	     13.17889328	    -18.02969579	     39.82333753	     89.95437384	      0.00000000	      0.00000000
      1.11000000	      0.26169905	     -0.93994674	      1.36175404	     -0.14849053	      0.88154952	      1.40558130	     29.44237805	     -1.97490606	    -20.10183776	    -18.69373115	     -0.32626716	     -4.44294411	      2.85017833	     -7.07743535	    -13.97998635	     -0.56712912	      9.83082764	    -14.03832234	     -0.24501495	     11.16315517	     -8.06004826	     -8.73494998	     -7.92780312	      5.94235867	     -6.28874947	     -3.59054115	    -10.72466403	     10.51129543	      9.97567849	     89.95437384	      0.00000000	      0.00000000	     27.27190393	     13.26730943	    -17.76384474	     41.20872006	     89.95437384	      0.00000000	      0.00000000
      1.12000000	     -0.00826977	     -0.84963053	      1.46324808	     -0.13492741	      0.87935014	      1.40642228	     30.15200244	     -2.10132340	    -20.74571638	    -17.85528690	     -0.31163355	     -4.13214692	      2.91195156	     -7.01496639	    -14.38705104	     -0.50867886	      9.60023573	    -14.54996803	     -0.25394485	     10.97987657	     -7.96363389	     -8.64975715	     -7.59017523	      5.84212319	     -6.17030404	     -4.13490550	    -10.56453020	     10.50717973	      9.85406140	     89.95437384	      0.00000000	      0.00000000	     27.76007808	     13.31964623	    -17.62785172	     42.44092907	     89.95437384	      0.00000000	      0.00000000
      1.13000000	      0.01898286	     -1.25559717	      2.33388486	     -0.12093471	      0.87787529	      1.40642684	     30.11063089	     -2.07688097	    -22.03742261	    -16.96701650	     -0.29613030	     -3.85647352	      3.66541269	     -7.07901244	    -14.75785445	      0.37750042	      8.96018776	    -15.61415949	     -0.27251849	     10.68178769	     -8.12549026	     -8.63799618	     -7.51235614	      6.40018909	     -7.02318783	     -4.34876664	    -10.38089902	     10.43424446	      9.47032623	     89.95437384	      0.00000000	      0.00000000	     27.75268302	     13.70004357	    -17.32425187	     44.40549866	     89.95437384	      0.00000000	      0.00000000
      1.14000000	      0.11037158	     -1.52821205	      2.95120569	     -0.10632263	      0.87648725	      1.40665562	     30.11241755	     -2.13256290	    -22.94949310	    -16.92570812	     -0.29540933	     -3.51146487	      4.09093221	     -7.13836083	    -15.30278105	      1.06124815	      8.52729441	    -16.50529665	     -0.28807177	     10.04338581	     -8.52070950	     -8.70193270	     -7.42226420	      6.78141527	     -7.49107702	     -4.70895870	    -10.22026063	     10.18811334	      9.21740818	     89.95437384	      0.00000000	      0.00000000	     27.72882970	     13.73428580	    -16.75695781	     45.95926329	     89.95437384	      0.00000000	      0.00000000
      1.15000000	      0.20208229	     -1.81281231	      3.46842731	     -0.09127439	      0.87514867	      1.40703018	     30.08744105	     -2.03507659	    -23.01746291	    -17.37153557	     -0.30319049	     -3.16053653	      3.73381569	     -7.04160291	    -15.78955869	      1.77011815	      8.21972728	    -17.52493892	     -0.30586789	      9.21182762	     -8.76901982	     -8.78257947	     -7.29495485	      7.16488091	     -7.89923438	     -5.10075622	    -10.10635261	     10.16205736	      8.99563389	     89.95437384	      0.00000000	      0.00000000	     27.50903577	     13.82002597	    -16.23057915	     47.59143189	     89.95437384	      0.00000000	      0.00000000
      1.16000000	      0.18457373	     -1.91965973	      3.75765192	     -0.07607402	      0.87368095	      1.40745271	     30.27735365	     -2.00537404	    -22.29007093	    -18.43092406	     -0.32168031	     -3.12620195	      3.29095981	     -6.81950045	    -16.11553440	      2.13482254	      7.66318563	    -18.70688631	     -0.32649676	      8.38677142	     -8.33357497	     -8.51435106	     -7.06264586	      7.33632739	     -7.90084939	     -5.68945591	    -10.07592151	     10.12642912	      9.10437577	     89.95437384	      0.00000000	      0.00000000	     27.37453510	     13.72016185	    -15.97083393	     48.93948317	     89.95437384	      0.00000000	      0.00000000
      1.17000000	      0.28958133	     -2.11363798	      4.11182514	     -0.06040053	      0.87243401	      1.40797196	     30.27314359	     -1.85940855	    -21.53313657	    -19.84551672	     -0.34636961	     -3.07850920	      2.53240768	     -6.54827834	    -16.45461347	      2.65065897	      7.09988057	    -20.04941989	     -0.34992839	      7.38675676	     -7.86901409	     -8.22780666	     -6.91513761	      7.59738201	     -8.07022191	     -6.13380724	    -10.01141016	     10.21531318	      9.00937077	     89.95437384	      0.00000000	      0.00000000	     26.92968117	     13.77496966	    -15.62178687	     50.54159686	     89.95437384	      0.00000000	      0.00000000
      1.18000000	      0.37735230	     -2.78150516	      4.49480948	     -0.04405603	      0.87123006	      1.40916334	     29.92969567	     -0.73969478	    -20.00514782	    -20.65417741	     -0.36048340	     -4.00043105	     -2.50219949	     -4.78073913	    -16.42193578	      4.10188133	      8.20684324	    -22.01168955	     -0.38417646	      5.47338534	     -9.53545313	     -9.10344379	     -6.59451923	      8.33302901	     -8.66474512	     -6.18243206	     -9.94002848	     11.30133304	      8.40816116	     89.95437384	      0.00000000	      0.00000000	     25.78968599	     14.04141123	    -14.59237297	     52.65645329	     89.95437384	      0.00000000	      0.00000000
      1.19000000	      0.55824775	     -2.84770220	      4.67051658	     -0.02769291	      0.87032508	      1.40987900	     29.88033883	     -0.80326924	    -20.15995381	    -22.33315507	     -0.38978709	     -7.78461107	     -3.18222404	     -3.89843465	    -16.58034289	      4.48968441	      8.10426039	    -23.80179583	     -0.41541971	      3.82612499	     -8.64364050	     -8.70374767	     -6.47850016	      8.45057772	     -8.74357609	     -6.48074325	     -9.87314931	     11.40304908	      8.20888883	     89.95437384	      0.00000000	      0.00000000	     25.01758928	     14.11134586	    -14.22302743	     54.22655750	     89.95437384	      0.00000000	      0.00000000
      1.20000000	      0.60572587	     -3.19519115	      4.78359665	     -0.01167814	      0.86962754	      1.41099114	     29.89514799	     -0.27874106	    -18.81490715	    -23.80071073	     -0.41540077	     -9.28208887	     -3.69509646	     -3.36515516	    -16.15205952	      5.25131014	      8.22956288	    -26.24793142	     -0.45811283	      1.76712854	     -7.53145738	     -8.22150456	     -6.26001377	      8.85638922	     -8.71086063	     -6.67659716	     -9.83088682	     11.55030849	      8.02183007	     89.95437384	      0.00000000	      0.00000000	     24.16074947	     14.05626627	    -13.72074506	     55.68503303	     89.95437384	      0.00000000	      0.00000000
      1.21000000	      0.56795089	     -3.67162150	      4.69554076	      0.00444222	      0.86911032	      1.41249063	     30.25539901	      0.28042012	    -18.14154442	    -25.93193121	     -0.45259758	     -8.76632720	     -5.23121946	     -3.01371540	    -15.43064733	      6.15791069	      8.73815188	    -28.92794358	     -0.50488786	     -0.83855829	     -6.48490663	     -7.69270367	     -5.92681684	      9.38123695	     -8.49881895	     -6.87075514	     -9.85012617	     11.57233038	      7.92982686	     89.95437384	      0.00000000	      0.00000000	     23.20872180	     13.90590056	    -13.13611624	     56.88924915	     89.95437384	      0.00000000	      0.00000000
      1.22000000	     -0.20734135	     -4.50322711	      4.28118312	      0.01980237	      0.86756516	      1.41528610	     31.44580947	      1.86301663	    -16.08603468	    -28.03151013	     -0.48924215	     -8.06307531	     -9.50402985	     -1.44975622	    -13.28286912	      7.83172568	     10.39501547	    -32.68235623	     -0.57041472	     -4.35158109	     -7.71954726	     -7.92571458	     -4.85352589	     10.14175626	     -8.03946599	     -6.98160614	     -9.84879861	     12.12762521	      7.74378886	     89.95437384	      0.00000000	      0.00000000	     22.05004234	     13.74967617	    -12.47666516	     58.10158445	     89.95437384	      0.00000000	      0.00000000
